<?xml version="1.0" encoding="UTF-8" standalone="no"?><!DOCTYPE svg PUBLIC "-//W3C//DTD SVG 1.1//EN" "http://www.w3.org/Graphics/SVG/1.1/DTD/svg11.dtd"><svg width="100%" height="100%" viewBox="0 0 1222 1564" version="1.1" xmlns="http://www.w3.org/2000/svg" xmlns:xlink="http://www.w3.org/1999/xlink" xml:space="preserve" xmlns:serif="http://www.serif.com/" style="fill-rule:evenodd;clip-rule:evenodd;stroke-linejoin:round;stroke-miterlimit:2;"><g id="Pin"></g><g id="Shield"></g><g id="Person"></g><g id="Flag"><g><path d="M188.116,22.367c-2.458,247.538 -0.717,1219.678 2.12,1462.846c0.316,27.117 34.116,35.885 36.041,-4.24c0.76,-15.839 3.856,-684.781 3.856,-684.781c0,0 800.924,6.032 965.014,0c31.392,-1.154 29.179,-33.278 19.081,-46.739c-7.984,-10.642 -160.132,-221.225 -192.898,-273.21c-6.91,-10.963 -10.242,-27.513 -3.699,-38.699c32.938,-56.309 171.8,-243.977 201.325,-299.156c9.675,-18.082 -9.19,-30.195 -21.675,-30.567c-164.691,-4.909 -966.471,1.112 -966.471,1.112c0,0 0.984,-90.857 0,-93.368c-4.479,-11.433 -12.958,-15.69 -23.898,-15.561c-7.205,0.085 -18.687,11.352 -18.796,22.364Z" style="fill:#f21010;"/></g><path d="M232.413,24.799l0,1458.739c0,13.687 -11.112,24.799 -24.799,24.799l-49.598,0c-13.687,0 -24.799,-11.112 -24.799,-24.799l0,-1458.739c0,-13.687 11.112,-24.799 24.799,-24.799l49.598,0c13.687,0 24.799,11.112 24.799,24.799Z" style="fill:#f21010;"/><path d="M127.744,1436.911c0,0 -1.584,27.856 -1.334,42.238c0.427,24.579 14.891,31.482 18.909,32.805c14.115,4.649 62.883,4.353 64.221,3.947c24.974,-7.571 25.464,-18.633 28.793,-33.176c0.071,-0.309 0.183,-0.621 0.205,-0.953c0.212,-3.246 0.888,-46.578 0.888,-46.578c0,0 50.491,6.586 68.747,12.019c14.597,4.344 30.883,12.05 40.793,20.579c9.055,7.793 18.803,20.7 18.667,30.595c-0.137,9.895 -10.231,21.807 -19.486,28.774c-11.018,8.294 -30.385,15.807 -46.621,20.988c-17.999,5.744 -40.479,11.998 -61.372,13.476c-30.891,2.185 -92.566,2.671 -123.973,-0.364c-22.194,-2.145 -46.56,-10.471 -64.468,-17.847c-15.547,-6.403 -34.449,-18.014 -42.978,-26.406c-6.014,-5.918 -10.288,-15.774 -8.197,-23.948c2.155,-8.423 12.031,-19.85 21.127,-26.588c10.836,-8.028 28.185,-17.204 43.889,-21.58c17.68,-4.927 41.46,-8.817 62.19,-7.98" style="fill:#005df6;"/></g></svg>