<?xml version="1.0" encoding="UTF-8" standalone="no"?><!DOCTYPE svg PUBLIC "-//W3C//DTD SVG 1.1//EN" "http://www.w3.org/Graphics/SVG/1.1/DTD/svg11.dtd"><svg width="100%" height="100%" viewBox="0 0 1219 1274" version="1.1" xmlns="http://www.w3.org/2000/svg" xmlns:xlink="http://www.w3.org/1999/xlink" xml:space="preserve" xmlns:serif="http://www.serif.com/" style="fill-rule:evenodd;clip-rule:evenodd;stroke-linejoin:round;stroke-miterlimit:2;"><g id="Pin"></g><g id="Shield"></g><g id="Person"><g><path d="M607.707,0.009c-88.261,0.922 -168.571,68.107 -174.259,164.517c-6.282,106.475 74.738,189.656 174.259,189.958c94.807,0.288 179.294,-82.502 175.128,-186.566c-4.055,-101.291 -90.231,-168.796 -175.128,-167.909Z" style="fill:#37a3d2;"/><path d="M607.707,398.581c-135.511,2.969 -166.891,101.385 -174.259,130.596c-10.167,40.305 -5.156,83.456 0,124.702c5.371,42.967 25.786,87.907 32.225,133.098c7.35,51.581 6.869,134.957 11.872,176.39c3.365,27.867 20.713,61.118 47.49,69.538c17.959,5.648 94.698,6.512 132.292,1.696c27.262,-3.493 80.736,-7.386 83.107,-74.626c0.784,-22.242 -6.904,-101.108 0,-150.949c7.067,-51.016 35.464,-107.073 42.401,-155.147c2.569,-17.801 14.557,-89.468 0,-133.182c-14.586,-43.804 -60.236,-124.633 -175.128,-122.116Z" style="fill:#37a3d2;"/></g><path d="M876.837,781.309c6.296,-16.97 33.074,-37.925 54.708,-35.604c33.722,3.618 105.653,32.348 147.624,57.313c39.914,23.741 81.049,59.189 104.206,92.477c21.46,30.848 36.472,73.021 34.735,107.25c-1.737,34.229 -19.811,72.552 -45.156,98.127c-31.841,32.13 -92.889,71.171 -145.888,94.653c-58.471,25.907 -134.763,48.427 -204.938,60.787c-73.957,13.026 -163.87,18.091 -238.804,17.368c-70.635,-0.682 -148.167,-10.565 -210.799,-21.709c-56.138,-9.989 -131.554,-28.95 -164.992,-45.156c-47.981,-23.254 -78.2,-27.351 -138.072,-80.759c-40.158,-35.822 -56.607,-71.739 -61.655,-91.455c-0.735,-2.873 -6.949,-24.638 -7.658,-45.629c-0.919,-27.187 1.749,-57.467 28.499,-93.476c25.794,-34.722 64.531,-65.197 103.337,-88.787c41.248,-25.074 111.895,-55.975 144.151,-61.655c26.738,-4.708 44.979,10.956 46.024,12.157c12.258,14.09 19.091,32.691 17.368,50.366c-3.277,33.606 -24.618,41.135 -50.366,51.234c-29.565,11.597 -80.759,31.985 -110.284,51.234c-25.895,16.883 -58.616,43.501 -66.865,64.26c-7.724,19.437 2.633,45.45 17.368,60.295c19.394,19.539 64.199,41.498 98.995,56.937c39.656,17.594 90.911,38.586 138.941,48.629c53.984,11.289 122.99,18.103 184.965,19.104c71.641,1.158 171.469,-0.434 244.883,-12.157c67.173,-10.726 144.621,-34.735 195.602,-58.181c41.709,-19.182 95.956,-58.181 110.284,-82.496c11.49,-19.498 -8.906,-46.816 -24.315,-63.392c-19.104,-20.552 -59.484,-43.998 -90.311,-59.918c-29.951,-15.468 -76.056,-18.634 -94.653,-35.604c-16.829,-15.356 -23.229,-49.244 -16.933,-66.214Z" style="fill:#015ef7;"/></g></svg>