<?xml version="1.0" encoding="UTF-8" standalone="no"?><!DOCTYPE svg PUBLIC "-//W3C//DTD SVG 1.1//EN" "http://www.w3.org/Graphics/SVG/1.1/DTD/svg11.dtd"><svg width="100%" height="100%" viewBox="0 0 1083 1477" version="1.1" xmlns="http://www.w3.org/2000/svg" xmlns:xlink="http://www.w3.org/1999/xlink" xml:space="preserve" xmlns:serif="http://www.serif.com/" style="fill-rule:evenodd;clip-rule:evenodd;stroke-linejoin:round;stroke-miterlimit:2;"><g id="Pin" opacity="0.99"><path d="M539.216,1476.256c-62.435,-49.902 -126.257,-115.062 -191.065,-191.065c-52.001,-60.801 -100.904,-124.257 -146.261,-190.753c-52.803,-79.846 -103.835,-163.918 -144.26,-273.282c-23.404,-52.825 -39.546,-115.554 -49.9,-186.175c-8.788,-62.238 -11.722,-123.608 0,-182.807c14.286,-84.418 46.332,-163.106 97.397,-235.659c57.486,-82.637 143.796,-146.784 264.161,-189.084c49.234,-20.354 108.076,-29.298 176.293,-27.11c77.623,2.958 130.185,12.361 166.282,25.997c122.735,44.211 203.937,108.759 259.055,185.392c52.769,71.006 79.105,132.222 91.828,188.396c17.692,79.3 25.291,152.225 14.804,213.727c-10.209,84.826 -30.608,159.463 -60.096,225.01c-23.765,55.829 -48.161,106.607 -73.409,150.572c-33.269,57.814 -68.8,110.202 -105.108,160.721c-41.96,56.647 -84.735,108.811 -127.91,158.775c-54.921,61.785 -111.421,119.536 -171.811,167.344Zm-6.356,-1309.791c-184.43,-6.134 -363.87,144.51 -367.442,373.688c-3.043,195.262 159.96,367.663 366.971,373.688c208.152,6.058 377.664,-152.508 383.895,-373.688c-11.719,-233.456 -186.792,-380.989 -383.424,-373.688Z" style="fill:#f20d0d;"/></g></svg>