<?xml version="1.0" encoding="UTF-8" standalone="no"?><!DOCTYPE svg PUBLIC "-//W3C//DTD SVG 1.1//EN" "http://www.w3.org/Graphics/SVG/1.1/DTD/svg11.dtd"><svg width="100%" height="100%" viewBox="0 0 1265 1139" version="1.1" xmlns="http://www.w3.org/2000/svg" xmlns:xlink="http://www.w3.org/1999/xlink" xml:space="preserve" xmlns:serif="http://www.serif.com/" style="fill-rule:evenodd;clip-rule:evenodd;stroke-linejoin:round;stroke-miterlimit:2;"><g id="Pin"></g><path d="M247.611,1138.503l-247.611,-343.293l124.145,-96.811l233.007,335.115l-109.542,104.988Zm32.736,-124.082c-8.754,-11.119 -25.02,-15.477 -41.002,-6.606c-11.817,12.112 -13.076,24.752 -5.923,37.813c13.131,15.073 25.631,15.63 37.813,8.884c12.199,-9.017 18.962,-22.767 9.112,-40.091Z" style="fill:#015ef7;"/><path d="M338.625,960.983c0,0 -134.073,-188.983 -158.626,-227.078c-2.06,-3.196 7.775,0.869 11.31,-1.494c5.57,-3.723 18.913,-11.362 31.894,-21.435c20.95,-16.258 42.739,-36.18 42.739,-36.18c0,0 28.882,-40.288 50.608,-49.495c35.647,-15.107 25.633,-27.508 157.94,-27.806c45.983,-0.104 79.236,18.952 116.648,32.255c44.657,15.88 24.807,17.438 152.047,28.463c43.781,3.794 131.823,1.896 131.823,1.896c30.9,3.016 37.386,11.124 45.635,17.468c6.105,4.695 10.704,13.153 10.01,20.824c-0.734,8.113 -3.288,15.816 -14.414,27.852c-9.469,10.243 -26.059,16.493 -35.638,21.397c-23.635,12.101 -63.185,18.63 -91.761,23.357c-26.26,4.344 -55.007,5.001 -79.693,5.005c-22.868,0.004 -44.792,-2.394 -68.425,-4.978c-23.39,-2.558 -71.85,-10.979 -71.85,-10.979c21.053,6.526 43.84,10.774 75.079,15.854c30.083,4.892 61.029,11.934 94.488,13.485c37.705,-1.114 75.411,-5.953 113.116,-15.572c27.416,-8.918 51.785,-20.883 72.519,-36.482c7.357,-7.9 17.344,-13.979 20.021,-32.923c1.965,-13.905 -0.422,-14.037 -4.894,-20.91l69.182,-31.588c37.206,-19.341 74.191,-37.574 110.447,-52.165c38.707,-19.339 74.151,-32.805 108.111,-43.6c13.402,-2.356 24.155,1.644 32.811,10.678c9.439,17.014 4.443,32.825 -8.898,47.941c-29.957,36.142 -59.913,60.819 -89.87,83.629l-111.67,78.424c-39.516,27.32 -56.674,36.939 -73.186,46.047c-29.609,19.047 -61.634,35.073 -96.099,48.049c-54.75,18.832 -113.934,29.429 -177.182,32.478c-52.399,4.125 -105.945,1.746 -160.165,-4.449c-28.069,-1.677 -57.268,-1.846 -88.98,1.335c-23.636,4.569 -63.732,24.47 -63.732,24.47l-51.345,36.23Z" style="fill:#37a3d2;"/><g><path d="M247.611,1138.503l-247.611,-343.293l124.145,-96.811l233.007,335.115l-109.542,104.988Z" style="fill:#015ef7;"/><path d="M280.347,1014.421c-8.754,-11.119 -25.02,-15.477 -41.002,-6.606c-11.817,12.112 -13.076,24.752 -5.923,37.813c13.131,15.073 25.631,15.63 37.813,8.884c12.199,-9.017 18.962,-22.767 9.112,-40.091Z" style="fill:#fff;"/><path d="M338.625,960.983c0,0 -134.073,-188.983 -158.626,-227.078c-2.06,-3.196 7.775,0.869 11.31,-1.494c5.57,-3.723 18.913,-11.362 31.894,-21.435c20.95,-16.258 42.739,-36.18 42.739,-36.18c0,0 28.882,-40.288 50.608,-49.495c35.647,-15.107 25.633,-27.508 157.94,-27.806c45.983,-0.104 79.236,18.952 116.648,32.255c44.657,15.88 24.807,17.438 152.047,28.463c43.781,3.794 131.823,1.896 131.823,1.896c30.9,3.016 37.386,11.124 45.635,17.468c6.105,4.695 10.704,13.153 10.01,20.824c-0.734,8.113 -3.288,15.816 -14.414,27.852c-9.469,10.243 -26.059,16.493 -35.638,21.397c-23.635,12.101 -63.185,18.63 -91.761,23.357c-26.26,4.344 -55.007,5.001 -79.693,5.005c-22.868,0.004 -44.792,-2.394 -68.425,-4.978c-23.39,-2.558 -71.85,-10.979 -71.85,-10.979c21.053,6.526 43.84,10.774 75.079,15.854c30.083,4.892 61.029,11.934 94.488,13.485c37.705,-1.114 75.411,-5.953 113.116,-15.572c27.416,-8.918 51.785,-20.883 72.519,-36.482c7.357,-7.9 17.344,-13.979 20.021,-32.923c1.965,-13.905 -0.422,-14.037 -4.894,-20.91l69.182,-31.588c37.206,-19.341 74.191,-37.574 110.447,-52.165c38.707,-19.339 74.151,-32.805 108.111,-43.6c13.402,-2.356 24.155,1.644 32.811,10.678c9.439,17.014 4.443,32.825 -8.898,47.941c-29.957,36.142 -59.913,60.819 -89.87,83.629l-111.67,78.424c-39.516,27.32 -56.674,36.939 -73.186,46.047c-29.609,19.047 -61.634,35.073 -96.099,48.049c-54.75,18.832 -113.934,29.429 -177.182,32.478c-52.399,4.125 -105.945,1.746 -160.165,-4.449c-28.069,-1.677 -57.268,-1.846 -88.98,1.335c-23.636,4.569 -63.732,24.47 -63.732,24.47l-51.345,36.23Z" style="fill:#005df6;"/><path d="M1036.18,231.071l-45.602,44.49c-9.785,65.144 -21.609,104.451 -35.036,123.46c-15.637,29.302 -38.35,54.223 -66.735,75.633c-22.541,18.059 -50.559,29.674 -83.419,35.592c-34.584,-6.519 -66.513,-20.672 -96.241,-41.153c-30.279,-27.074 -59.566,-73.55 -71.709,-103.996c-14.28,-35.803 -21.759,-88.898 -28.362,-217.446c-0.622,-14.154 -1.437,-28.952 -0.556,-38.095c23.814,6.735 57.874,6.377 100.628,0c38.724,-8.442 71.044,-24.613 95.685,-50.051c20.896,17.775 40.482,30.31 58.949,38.373c28.362,12.703 56.725,18.601 85.087,16.128l42.822,-42.822c-26.879,3.731 -53.759,3.504 -80.638,-1.112c-40.962,-8.601 -76.235,-33.395 -107.332,-70.072c-19.259,30.579 -51.791,51.738 -94.573,65.623c-24.366,7.242 -53.028,11.082 -95.623,3.893l-47.827,-11.679c1.537,62.342 3.619,115.427 6.674,151.968c5.633,90.284 8.54,107.38 11.123,116.085c2.103,28.949 12.196,57.1 29.475,84.531c21.129,36.647 45.954,68.367 76.189,92.873c33.268,27.897 70.369,45.448 111.225,52.858c42.342,-6.332 80.214,-22.348 113.45,-48.409c45.781,-34.669 79.664,-85.336 103.44,-149.598l18.908,-127.075Z" style="fill:#015ef7;"/><path d="M1036.18,88.13c8.157,5.858 34.233,30.995 40.1,39.596c2.437,3.572 -1.849,8.942 -4.894,12.012c-44.713,45.083 -216.815,215.332 -263.382,258.488c-3.917,3.63 -12.255,4.237 -16.016,0.445c-27.658,-27.88 -124.721,-137.4 -149.932,-167.728c-3.047,-3.665 -4.145,-10.387 -1.335,-14.237c5.413,-7.415 25.804,-25.359 33.813,-30.253c4.057,-2.479 10.862,-2.46 14.237,0.89c19.946,19.798 85.124,98.249 105.442,117.899c3.944,3.815 12.408,3.698 16.461,0c38.855,-35.444 216.667,-212.663 216.667,-212.663c0,0 6.16,-6.373 8.839,-4.449Z" style="fill:#f21010;"/></g></svg>